# This file uses centimeters as units for non-parametric coordinates.

mtllib Arrow.mtl
g default
v 0.006892 -0.469907 -0.154509
v 0.006892 -0.398887 -0.293893
v 0.006892 -0.288271 -0.404509
v 0.006892 -0.148887 -0.475529
v 0.006892 0.005622 -0.500000
v 0.006892 0.160130 -0.475528
v 0.006892 0.299515 -0.404509
v 0.006892 0.410131 -0.293893
v 0.006892 0.481150 -0.154509
v 0.006892 0.505622 0.000000
v 0.006892 0.481150 0.154509
v 0.006892 0.410130 0.293893
v 0.006892 0.299515 0.404509
v 0.006892 0.160130 0.475528
v 0.006892 0.005622 0.500000
v 0.006892 -0.148887 0.475528
v 0.006892 -0.288271 0.404509
v 0.006892 -0.398887 0.293893
v 0.006892 -0.469906 0.154509
v 0.006892 -0.494378 0.000000
v 4.006892 -0.469907 -0.154509
v 4.006892 -0.398887 -0.293893
v 4.006892 -0.288271 -0.404509
v 4.006892 -0.148887 -0.475529
v 4.006892 0.005622 -0.500000
v 4.006892 0.160130 -0.475528
v 4.006892 0.299515 -0.404509
v 4.006892 0.410131 -0.293893
v 4.006892 0.481150 -0.154509
v 4.006892 0.505622 0.000000
v 4.006892 0.481150 0.154509
v 4.006892 0.410130 0.293893
v 4.006892 0.299515 0.404509
v 4.006892 0.160130 0.475528
v 4.006892 0.005622 0.500000
v 4.006892 -0.148887 0.475528
v 4.006892 -0.288271 0.404509
v 4.006892 -0.398887 0.293893
v 4.006892 -0.469906 0.154509
v 4.006892 -0.494378 0.000000
v 0.006892 0.005622 0.000000
v 4.006892 0.005622 0.000000
v 3.851004 -0.945435 -0.309017
v 3.851004 -0.803396 -0.587786
v 3.851004 -0.582164 -0.809017
v 3.851004 -0.303395 -0.951057
v 3.851004 0.005622 -1.000000
v 3.851004 0.314639 -0.951057
v 3.851004 0.593407 -0.809017
v 3.851004 0.814639 -0.587785
v 3.851004 0.956679 -0.309017
v 3.851004 1.005622 0.000000
v 3.851004 0.956679 0.309017
v 3.851004 0.814639 0.587785
v 3.851004 0.593407 0.809017
v 3.851004 0.314639 0.951057
v 3.851004 0.005622 1.000000
v 3.851004 -0.303395 0.951057
v 3.851004 -0.582163 0.809017
v 3.851004 -0.803395 0.587785
v 3.851004 -0.945435 0.309017
v 3.851004 -0.994378 0.000000
v 5.851004 0.005622 0.000000
vt 0.032967 0.795719
vt 0.032967 0.816397
vt 0.672288 0.816397
vt 0.672288 0.795719
vt 0.032967 0.832807
vt 0.672288 0.832807
vt 0.032967 0.843343
vt 0.672288 0.843343
vt 0.032967 0.846973
vt 0.672288 0.846973
vt 0.032967 0.843343
vt 0.672288 0.843343
vt 0.032967 0.832807
vt 0.672288 0.832807
vt 0.032967 0.816397
vt 0.672288 0.816397
vt 0.032967 0.795719
vt 0.672288 0.795719
vt 0.032967 0.772798
vt 0.672288 0.772798
vt 0.032967 0.749876
vt 0.672288 0.749876
vt 0.032967 0.729198
vt 0.672288 0.729198
vt 0.032967 0.712788
vt 0.672288 0.712788
vt 0.032967 0.702252
vt 0.672288 0.702252
vt 0.032967 0.698622
vt 0.672288 0.698622
vt 0.032967 0.702252
vt 0.672288 0.702252
vt 0.032967 0.712788
vt 0.672288 0.712788
vt 0.032967 0.729198
vt 0.672288 0.729198
vt 0.032967 0.749876
vt 0.672288 0.749876
vt 0.032967 0.772798
vt 0.672288 0.772798
vt 0.032967 0.772798
vt 0.672288 0.772798
vt 0.647372 0.818641
vt 0.647372 0.772798
vt 0.647372 0.726954
vt 0.647372 0.685599
vt 0.647372 0.652779
vt 0.647372 0.631707
vt 0.647372 0.624446
vt 0.647372 0.631707
vt 0.647372 0.652779
vt 0.647372 0.685599
vt 0.647372 0.726954
vt 0.647372 0.772798
vt 0.647372 0.818641
vt 0.647372 0.859996
vt 0.647372 0.892817
vt 0.647372 0.913888
vt 0.647372 0.921149
vt 0.647372 0.913888
vt 0.647372 0.892817
vt 0.647372 0.859997
vt 0.967033 0.772798
vn 0.000000 -0.951057 -0.309016
vn 0.000000 -0.809017 -0.587785
vn 0.000000 -0.809017 -0.587785
vn 0.000000 -0.951057 -0.309016
vn 0.000000 -0.809017 -0.587785
vn 0.000000 -0.587785 -0.809017
vn 0.000000 -0.587785 -0.809017
vn 0.000000 -0.809017 -0.587785
vn 0.000000 -0.587785 -0.809017
vn 0.000000 -0.309017 -0.951057
vn 0.000000 -0.309017 -0.951057
vn 0.000000 -0.587785 -0.809017
vn 0.000000 -0.309017 -0.951057
vn 0.000000 0.000000 -1.000000
vn 0.000000 0.000000 -1.000000
vn 0.000000 -0.309017 -0.951057
vn 0.000000 0.000000 -1.000000
vn 0.000000 0.309017 -0.951056
vn 0.000000 0.309017 -0.951056
vn 0.000000 0.000000 -1.000000
vn 0.000000 0.309017 -0.951056
vn 0.000000 0.587785 -0.809017
vn 0.000000 0.587785 -0.809017
vn 0.000000 0.309017 -0.951056
vn 0.000000 0.587785 -0.809017
vn 0.000000 0.809017 -0.587785
vn 0.000000 0.809017 -0.587785
vn 0.000000 0.587785 -0.809017
vn 0.000000 0.809017 -0.587785
vn 0.000000 0.951057 -0.309017
vn 0.000000 0.951057 -0.309017
vn 0.000000 0.809017 -0.587785
vn 0.000000 0.951057 -0.309017
vn 0.000000 1.000000 0.000000
vn 0.000000 1.000000 0.000000
vn 0.000000 0.951057 -0.309017
vn 0.000000 1.000000 0.000000
vn 0.000000 0.951056 0.309017
vn 0.000000 0.951056 0.309017
vn 0.000000 1.000000 0.000000
vn 0.000000 0.951056 0.309017
vn 0.000000 0.809017 0.587785
vn 0.000000 0.809017 0.587785
vn 0.000000 0.951056 0.309017
vn 0.000000 0.809017 0.587785
vn 0.000000 0.587785 0.809017
vn 0.000000 0.587785 0.809017
vn 0.000000 0.809017 0.587785
vn 0.000000 0.587785 0.809017
vn 0.000000 0.309017 0.951057
vn 0.000000 0.309017 0.951057
vn 0.000000 0.587785 0.809017
vn 0.000000 0.309017 0.951057
vn 0.000000 -0.000000 1.000000
vn 0.000000 -0.000000 1.000000
vn 0.000000 0.309017 0.951057
vn 0.000000 -0.000000 1.000000
vn 0.000000 -0.309017 0.951057
vn 0.000000 -0.309017 0.951057
vn 0.000000 -0.000000 1.000000
vn 0.000000 -0.309017 0.951057
vn 0.000000 -0.587785 0.809017
vn 0.000000 -0.587785 0.809017
vn 0.000000 -0.309017 0.951057
vn 0.000000 -0.587785 0.809017
vn 0.000000 -0.809017 0.587785
vn 0.000000 -0.809017 0.587785
vn 0.000000 -0.587785 0.809017
vn 0.000000 -0.809017 0.587785
vn 0.000000 -0.951057 0.309017
vn 0.000000 -0.951057 0.309017
vn 0.000000 -0.809017 0.587785
vn 0.000000 -0.951057 0.309017
vn 0.000000 -1.000000 0.000001
vn 0.000000 -1.000000 0.000001
vn 0.000000 -0.951057 0.309017
vn 0.000000 -1.000000 0.000001
vn 0.000000 -0.951057 -0.309016
vn 0.000000 -0.951057 -0.309016
vn 0.000000 -1.000000 0.000001
vn -1.000000 0.000000 0.000000
vn -1.000000 0.000000 0.000000
vn -1.000000 0.000000 0.000000
vn -1.000000 0.000000 0.000000
vn -1.000000 0.000000 0.000000
vn -1.000000 0.000000 0.000000
vn -1.000000 0.000000 0.000000
vn -1.000000 0.000000 0.000000
vn -1.000000 0.000000 0.000000
vn -1.000000 0.000000 0.000000
vn -1.000000 0.000000 0.000000
vn -1.000000 0.000000 0.000000
vn -1.000000 0.000000 0.000000
vn -1.000000 0.000000 0.000000
vn -1.000000 0.000000 0.000000
vn -1.000000 0.000000 0.000000
vn -1.000000 0.000000 0.000000
vn -1.000000 0.000000 0.000000
vn -1.000000 0.000000 0.000000
vn -1.000000 0.000000 0.000000
vn -1.000000 0.000000 0.000000
vn -1.000000 0.000000 0.000000
vn -1.000000 0.000000 0.000000
vn -1.000000 0.000000 0.000000
vn -1.000000 0.000000 0.000000
vn -1.000000 0.000000 0.000000
vn -1.000000 0.000000 0.000000
vn -1.000000 0.000000 0.000000
vn -1.000000 0.000000 0.000000
vn -1.000000 0.000000 0.000000
vn -1.000000 0.000000 0.000000
vn -1.000000 0.000000 0.000000
vn -1.000000 0.000000 0.000000
vn -1.000000 0.000000 0.000000
vn -1.000000 0.000000 0.000000
vn -1.000000 0.000000 0.000000
vn -1.000000 0.000000 0.000000
vn -1.000000 0.000000 0.000000
vn -1.000000 0.000000 0.000000
vn -1.000000 0.000000 0.000000
vn -1.000000 0.000000 0.000000
vn -1.000000 0.000000 0.000000
vn -1.000000 0.000000 0.000000
vn -1.000000 0.000000 0.000000
vn -1.000000 0.000000 0.000000
vn -1.000000 0.000000 0.000000
vn -1.000000 0.000000 0.000000
vn -1.000000 0.000000 0.000000
vn -1.000000 0.000000 0.000000
vn -1.000000 0.000000 0.000000
vn -1.000000 0.000000 0.000000
vn -1.000000 0.000000 0.000000
vn -1.000000 0.000000 0.000000
vn -1.000000 0.000000 0.000000
vn -1.000000 0.000000 0.000000
vn -1.000000 0.000000 0.000000
vn -1.000000 0.000000 0.000000
vn -1.000000 0.000000 0.000000
vn -1.000000 0.000000 0.000000
vn -1.000000 0.000000 0.000000
vn 1.000000 -0.000001 0.000000
vn 1.000000 0.000001 0.000000
vn 1.000000 0.000000 0.000000
vn 1.000000 0.000001 0.000000
vn 1.000000 0.000002 0.000000
vn 1.000000 0.000000 0.000000
vn 1.000000 0.000002 0.000000
vn 1.000000 0.000000 0.000000
vn 1.000000 0.000000 0.000000
vn 1.000000 0.000000 0.000000
vn 1.000000 0.000000 0.000000
vn 1.000000 0.000000 0.000000
vn 1.000000 0.000000 0.000000
vn 1.000000 0.000000 0.000000
vn 1.000000 0.000000 0.000000
vn 1.000000 0.000000 0.000000
vn 1.000000 -0.000002 0.000000
vn 1.000000 0.000000 0.000000
vn 1.000000 -0.000002 0.000000
vn 1.000000 -0.000002 0.000000
vn 1.000000 0.000000 0.000000
vn 1.000000 -0.000002 0.000000
vn 1.000000 0.000000 0.000000
vn 1.000000 0.000000 0.000000
vn 1.000000 0.000000 0.000000
vn 1.000000 0.000000 0.000000
vn 1.000000 0.000000 0.000000
vn 1.000000 0.000000 0.000000
vn 1.000000 0.000001 0.000000
vn 1.000000 0.000000 0.000000
vn 1.000000 0.000001 0.000000
vn 1.000000 -0.000001 0.000000
vn 1.000000 0.000000 0.000000
vn 1.000000 -0.000001 0.000000
vn 1.000000 -0.000002 0.000000
vn 1.000000 0.000000 0.000000
vn 1.000000 -0.000002 0.000000
vn 1.000000 0.000000 0.000000
vn 1.000000 0.000000 0.000000
vn 1.000000 0.000000 0.000000
vn 1.000000 0.000000 0.000000
vn 1.000000 0.000000 0.000000
vn 1.000000 0.000000 0.000000
vn 1.000000 0.000000 0.000000
vn 1.000000 0.000000 0.000000
vn 1.000000 0.000000 0.000000
vn 1.000000 0.000002 0.000000
vn 1.000000 0.000000 0.000000
vn 1.000000 0.000002 0.000000
vn 1.000000 0.000002 0.000000
vn 1.000000 0.000000 0.000000
vn 1.000000 0.000002 0.000000
vn 1.000000 0.000000 0.000000
vn 1.000000 0.000000 0.000000
vn 1.000000 0.000000 0.000000
vn 1.000000 0.000000 0.000000
vn 1.000000 0.000000 0.000000
vn 1.000000 0.000000 0.000000
vn 1.000000 -0.000001 0.000000
vn 1.000000 0.000000 0.000000
vn -1.000000 0.000000 0.000000
vn -1.000000 0.000000 0.000000
vn -1.000000 0.000000 0.000000
vn -1.000000 0.000000 0.000000
vn -1.000000 0.000000 0.000000
vn -1.000000 0.000000 0.000000
vn -1.000000 0.000000 0.000000
vn -1.000000 0.000000 0.000000
vn -1.000000 0.000000 0.000000
vn -1.000000 0.000000 0.000000
vn -1.000000 0.000000 0.000000
vn -1.000000 0.000000 0.000000
vn -1.000000 0.000000 0.000000
vn -1.000000 0.000000 0.000000
vn -1.000000 0.000000 0.000000
vn -1.000000 0.000000 0.000000
vn -1.000000 0.000000 0.000000
vn -1.000000 0.000000 0.000000
vn -1.000000 0.000000 0.000000
vn -1.000000 0.000000 0.000000
vn 0.447214 -0.850651 -0.276392
vn 0.447214 -0.723607 -0.525731
vn 1.000000 0.000000 -0.000001
vn 0.447214 -0.723607 -0.525731
vn 0.447214 -0.525731 -0.723607
vn 1.000000 0.000000 -0.000001
vn 0.447214 -0.525731 -0.723607
vn 0.447214 -0.276393 -0.850651
vn 1.000000 0.000000 -0.000001
vn 0.447214 -0.276393 -0.850651
vn 0.447214 0.000000 -0.894427
vn 1.000000 0.000000 -0.000001
vn 0.447214 0.000000 -0.894427
vn 0.447214 0.276393 -0.850651
vn 1.000000 0.000000 -0.000001
vn 0.447214 0.276393 -0.850651
vn 0.447214 0.525731 -0.723607
vn 1.000000 0.000000 -0.000001
vn 0.447214 0.525731 -0.723607
vn 0.447214 0.723607 -0.525731
vn 1.000000 0.000000 -0.000001
vn 0.447214 0.723607 -0.525731
vn 0.447214 0.850651 -0.276393
vn 1.000000 0.000000 -0.000001
vn 0.447214 0.850651 -0.276393
vn 0.447214 0.894427 0.000000
vn 1.000000 0.000000 -0.000001
vn 0.447214 0.894427 0.000000
vn 0.447214 0.850651 0.276393
vn 1.000000 0.000000 -0.000001
vn 0.447214 0.850651 0.276393
vn 0.447214 0.723607 0.525731
vn 1.000000 0.000000 -0.000001
vn 0.447214 0.723607 0.525731
vn 0.447214 0.525731 0.723607
vn 1.000000 0.000000 -0.000001
vn 0.447214 0.525731 0.723607
vn 0.447214 0.276393 0.850651
vn 1.000000 0.000000 -0.000001
vn 0.447214 0.276393 0.850651
vn 0.447214 0.000000 0.894427
vn 1.000000 0.000000 -0.000001
vn 0.447214 0.000000 0.894427
vn 0.447214 -0.276393 0.850651
vn 1.000000 0.000000 -0.000001
vn 0.447214 -0.276393 0.850651
vn 0.447214 -0.525731 0.723607
vn 1.000000 0.000000 -0.000001
vn 0.447214 -0.525731 0.723607
vn 0.447214 -0.723607 0.525731
vn 1.000000 0.000000 -0.000001
vn 0.447214 -0.723607 0.525731
vn 0.447214 -0.850651 0.276393
vn 1.000000 0.000000 -0.000001
vn 0.447214 -0.850651 0.276393
vn 0.447214 -0.894427 0.000001
vn 1.000000 0.000000 -0.000001
vn 0.447214 -0.894427 0.000001
vn 0.447214 -0.850651 -0.276392
vn 1.000000 0.000000 -0.000001
s off
g Arrow_pCylinder2
usemtl initialShadingGroup
f 1/1/1 2/2/2 22/3/3 21/4/4
f 2/2/5 3/5/6 23/6/7 22/3/8
f 3/5/9 4/7/10 24/8/11 23/6/12
f 4/7/13 5/9/14 25/10/15 24/8/16
f 5/9/17 6/11/18 26/12/19 25/10/20
f 6/11/21 7/13/22 27/14/23 26/12/24
f 7/13/25 8/15/26 28/16/27 27/14/28
f 8/15/29 9/17/30 29/18/31 28/16/32
f 9/17/33 10/19/34 30/20/35 29/18/36
f 10/19/37 11/21/38 31/22/39 30/20/40
f 11/21/41 12/23/42 32/24/43 31/22/44
f 12/23/45 13/25/46 33/26/47 32/24/48
f 13/25/49 14/27/50 34/28/51 33/26/52
f 14/27/53 15/29/54 35/30/55 34/28/56
f 15/29/57 16/31/58 36/32/59 35/30/60
f 16/31/61 17/33/62 37/34/63 36/32/64
f 17/33/65 18/35/66 38/36/67 37/34/68
f 18/35/69 19/37/70 39/38/71 38/36/72
f 19/37/73 20/39/74 40/40/75 39/38/76
f 20/39/77 1/1/78 21/4/79 40/40/80
f 2/2/81 1/1/82 41/41/83
f 3/5/84 2/2/85 41/41/86
f 4/7/87 3/5/88 41/41/89
f 5/9/90 4/7/91 41/41/92
f 6/11/93 5/9/94 41/41/95
f 7/13/96 6/11/97 41/41/98
f 8/15/99 7/13/100 41/41/101
f 9/17/102 8/15/103 41/41/104
f 10/19/105 9/17/106 41/41/107
f 11/21/108 10/19/109 41/41/110
f 12/23/111 11/21/112 41/41/113
f 13/25/114 12/23/115 41/41/116
f 14/27/117 13/25/118 41/41/119
f 15/29/120 14/27/121 41/41/122
f 16/31/123 15/29/124 41/41/125
f 17/33/126 16/31/127 41/41/128
f 18/35/129 17/33/130 41/41/131
f 19/37/132 18/35/133 41/41/134
f 20/39/135 19/37/136 41/41/137
f 1/1/138 20/39/139 41/41/140
f 21/4/141 22/3/142 42/42/143
f 22/3/144 23/6/145 42/42/146
f 23/6/147 24/8/148 42/42/149
f 24/8/150 25/10/151 42/42/152
f 25/10/153 26/12/154 42/42/155
f 26/12/156 27/14/157 42/42/158
f 27/14/159 28/16/160 42/42/161
f 28/16/162 29/18/163 42/42/164
f 29/18/165 30/20/166 42/42/167
f 30/20/168 31/22/169 42/42/170
f 31/22/171 32/24/172 42/42/173
f 32/24/174 33/26/175 42/42/176
f 33/26/177 34/28/178 42/42/179
f 34/28/180 35/30/181 42/42/182
f 35/30/183 36/32/184 42/42/185
f 36/32/186 37/34/187 42/42/188
f 37/34/189 38/36/190 42/42/191
f 38/36/192 39/38/193 42/42/194
f 39/38/195 40/40/196 42/42/197
f 40/40/198 21/4/199 42/42/200
f 43/43/201 62/44/202 61/45/203 60/46/204 59/47/205 58/48/206 57/49/207 56/50/208 55/51/209 54/52/210 53/53/211 52/54/212 51/55/213 50/56/214 49/57/215 48/58/216 47/59/217 46/60/218 45/61/219 44/62/220
f 43/43/221 44/62/222 63/63/223
f 44/62/224 45/61/225 63/63/226
f 45/61/227 46/60/228 63/63/229
f 46/60/230 47/59/231 63/63/232
f 47/59/233 48/58/234 63/63/235
f 48/58/236 49/57/237 63/63/238
f 49/57/239 50/56/240 63/63/241
f 50/56/242 51/55/243 63/63/244
f 51/55/245 52/54/246 63/63/247
f 52/54/248 53/53/249 63/63/250
f 53/53/251 54/52/252 63/63/253
f 54/52/254 55/51/255 63/63/256
f 55/51/257 56/50/258 63/63/259
f 56/50/260 57/49/261 63/63/262
f 57/49/263 58/48/264 63/63/265
f 58/48/266 59/47/267 63/63/268
f 59/47/269 60/46/270 63/63/271
f 60/46/272 61/45/273 63/63/274
f 61/45/275 62/44/276 63/63/277
f 62/44/278 43/43/279 63/63/280
