# This file uses centimeters as units for non-parametric coordinates.

mtllib JeffersSad3.mtl
g default
v 2.306389 -2.075773 2.075773
v 2.075773 -2.075773 2.306389
v 2.075773 -2.306389 2.075773
v 2.075773 2.306389 2.075773
v 2.075773 2.075773 2.306389
v 2.306389 2.075773 2.075773
v -2.075773 -2.306389 2.075773
v -2.075773 -2.075773 2.306389
v -2.306389 -2.075773 2.075773
v -2.306389 2.075773 2.075773
v -2.075773 2.075773 2.306389
v -2.075773 2.306389 2.075773
v -2.075773 -2.306389 -2.075773
v -2.306389 -2.075773 -2.075773
v -2.075773 -2.075773 -2.306389
v -2.075773 2.075773 -2.306389
v -2.306389 2.075773 -2.075773
v -2.075773 2.306389 -2.075773
v 2.075773 -2.306389 -2.075773
v 2.075773 -2.075773 -2.306389
v 2.306389 -2.075773 -2.075773
v 2.306389 2.075773 -2.075773
v 2.075773 2.075773 -2.306389
v 2.075773 2.306389 -2.075773
vt 0.572752 0.018522
vt 0.559948 0.016580
vt 0.747823 0.014163
vt 0.364921 0.251002
vt 0.364719 0.240157
vt 0.765151 0.015838
vt 0.578150 0.252926
vt 0.575415 0.225533
vt 0.767121 0.222014
vt 0.757588 0.256256
vt 0.559942 0.236519
vt 0.560145 0.247363
vt 0.588595 0.675505
vt 0.354077 0.251204
vt 0.368559 0.446225
vt 0.582291 0.644896
vt 0.759469 0.641594
vt 0.357715 0.446427
vt 0.583553 0.444467
vt 0.563783 0.442586
vt 0.773310 0.673989
vt 0.368762 0.457069
vt 0.578653 0.449673
vt 0.563985 0.453431
vt 0.986353 0.002817
vt 0.757521 0.440785
vt 0.774465 0.879160
vt 0.582212 0.878889
vt 0.986424 0.014224
vt 0.755830 0.446371
vt 0.781082 0.015499
vt 0.781011 0.004093
vt 0.997831 0.014153
vt 0.999106 0.219495
vt 0.987700 0.219565
vt 0.987771 0.230972
vt 0.782429 0.232248
vt 0.782358 0.220841
vn 0.707107 -0.707107 0.000000
vn 0.707107 -0.707107 0.000000
vn 0.707107 -0.707107 0.000000
vn 0.707107 -0.707107 0.000000
vn 0.707107 0.000000 0.707107
vn 0.707107 0.000000 0.707107
vn 0.707107 0.000000 0.707107
vn 0.707107 0.000000 0.707107
vn 0.000000 -0.707107 0.707107
vn 0.000000 -0.707107 0.707107
vn 0.000000 -0.707107 0.707107
vn 0.000000 -0.707107 0.707107
vn 0.707107 0.707107 0.000000
vn 0.707107 0.707107 0.000000
vn 0.707107 0.707107 0.000000
vn 0.707107 0.707107 0.000000
vn 0.000000 0.707107 0.707107
vn 0.000000 0.707107 0.707107
vn 0.000000 0.707107 0.707107
vn 0.000000 0.707107 0.707107
vn -0.707107 -0.707106 0.000000
vn -0.707107 -0.707106 0.000000
vn -0.707107 -0.707106 0.000000
vn -0.707107 -0.707106 0.000000
vn -0.707107 0.000000 0.707107
vn -0.707107 0.000000 0.707107
vn -0.707107 0.000000 0.707107
vn -0.707107 0.000000 0.707107
vn -0.707107 0.707106 0.000000
vn -0.707107 0.707106 0.000000
vn -0.707107 0.707106 0.000000
vn -0.707107 0.707106 0.000000
vn 0.000000 -0.707107 -0.707107
vn 0.000000 -0.707107 -0.707107
vn 0.000000 -0.707107 -0.707107
vn 0.000000 -0.707107 -0.707107
vn -0.707107 0.000000 -0.707107
vn -0.707107 0.000000 -0.707107
vn -0.707107 0.000000 -0.707107
vn -0.707107 0.000000 -0.707107
vn 0.000000 0.707107 -0.707107
vn 0.000000 0.707107 -0.707107
vn 0.000000 0.707107 -0.707107
vn 0.000000 0.707107 -0.707107
vn 0.707107 0.000000 -0.707107
vn 0.707107 0.000000 -0.707107
vn 0.707107 0.000000 -0.707107
vn 0.707107 0.000000 -0.707107
vn 0.000000 0.000000 1.000000
vn 0.000000 0.000000 1.000000
vn 0.000000 0.000000 1.000000
vn 0.000000 0.000000 1.000000
vn -1.000000 0.000000 0.000000
vn -1.000000 0.000000 0.000000
vn -1.000000 0.000000 0.000000
vn -1.000000 0.000000 0.000000
vn 0.000000 0.000000 -1.000000
vn 0.000000 0.000000 -1.000000
vn 0.000000 0.000000 -1.000000
vn 0.000000 0.000000 -1.000000
vn 1.000000 0.000000 0.000000
vn 1.000000 0.000000 0.000000
vn 1.000000 0.000000 0.000000
vn 1.000000 0.000000 0.000000
vn 0.000000 1.000000 0.000000
vn 0.000000 1.000000 0.000000
vn 0.000000 1.000000 0.000000
vn 0.000000 1.000000 0.000000
vn 0.000000 -1.000000 0.000000
vn 0.000000 -1.000000 0.000000
vn 0.000000 -1.000000 0.000000
vn 0.000000 -1.000000 0.000000
vn 0.577350 -0.577350 0.577350
vn 0.577350 -0.577350 0.577350
vn 0.577350 -0.577350 0.577350
vn 0.577350 0.577350 0.577350
vn 0.577350 0.577350 0.577350
vn 0.577350 0.577350 0.577350
vn -0.577350 -0.577350 0.577350
vn -0.577350 -0.577350 0.577350
vn -0.577350 -0.577350 0.577350
vn -0.577350 0.577350 0.577350
vn -0.577350 0.577350 0.577350
vn -0.577350 0.577350 0.577350
vn -0.577350 -0.577350 -0.577350
vn -0.577350 -0.577350 -0.577350
vn -0.577350 -0.577350 -0.577350
vn -0.577350 0.577350 -0.577350
vn -0.577350 0.577350 -0.577350
vn -0.577350 0.577350 -0.577350
vn 0.577350 -0.577350 -0.577350
vn 0.577350 -0.577350 -0.577350
vn 0.577350 -0.577350 -0.577350
vn 0.577350 0.577350 -0.577350
vn 0.577350 0.577350 -0.577350
vn 0.577350 0.577350 -0.577350
s off
g pCube1
usemtl blinn1SG
f 1/1/1 3/2/2 19/3/3 21/6/4
f 2/4/5 1/5/6 6/11/7 5/12/8
f 3/14/9 2/4/10 8/15/11 7/18/12
f 4/7/13 6/8/14 22/9/15 24/10/16
f 5/12/17 4/7/18 12/19/19 11/20/20
f 7/13/21 9/16/22 14/17/23 13/21/24
f 9/22/25 8/15/26 11/20/27 10/24/28
f 10/23/29 12/19/30 18/26/31 17/30/32
f 13/25/33 15/29/34 20/31/35 19/32/36
f 15/29/37 14/33/38 17/34/39 16/35/40
f 16/35/41 18/36/42 24/37/43 23/38/44
f 21/6/45 20/31/46 23/38/47 22/9/48
f 2/4/49 5/12/50 11/20/51 8/15/52
f 9/16/53 10/23/54 17/30/55 14/17/56
f 15/29/57 16/35/58 23/38/59 20/31/60
f 21/6/61 22/9/62 6/8/63 1/1/64
f 4/7/65 24/10/66 18/26/67 12/19/68
f 19/27/69 3/28/70 7/13/71 13/21/72
f 1/5/73 2/4/74 3/14/75
f 4/7/76 5/12/77 6/11/78
f 7/18/79 8/15/80 9/22/81
f 10/24/82 11/20/83 12/19/84
f 13/25/85 14/33/86 15/29/87
f 16/35/88 17/34/89 18/36/90
f 19/32/91 20/31/92 21/6/93
f 22/9/94 23/38/95 24/37/96
